<?xml version="1.0" encoding="UTF-8" standalone="no"?>
<!-- Created with Inkscape (http://www.inkscape.org/) -->

<svg
   width="210mm"
   height="297mm"
   viewBox="0 0 210 297"
   version="1.1"
   id="svg1"
   inkscape:version="1.4-beta3 (01c8a1c, 2024-08-28)"
   sodipodi:docname="atardecer-nyc.svg"
   xmlns:inkscape="http://www.inkscape.org/namespaces/inkscape"
   xmlns:sodipodi="http://sodipodi.sourceforge.net/DTD/sodipodi-0.dtd"
   xmlns="http://www.w3.org/2000/svg"
   xmlns:svg="http://www.w3.org/2000/svg">
  <sodipodi:namedview
     id="namedview1"
     pagecolor="#ffffff"
     bordercolor="#000000"
     borderopacity="0.25"
     inkscape:showpageshadow="2"
     inkscape:pageopacity="0.0"
     inkscape:pagecheckerboard="0"
     inkscape:deskcolor="#d1d1d1"
     inkscape:document-units="mm"
     inkscape:zoom="0.68506594"
     inkscape:cx="402.15107"
     inkscape:cy="597.75268"
     inkscape:window-width="1860"
     inkscape:window-height="1016"
     inkscape:window-x="0"
     inkscape:window-y="0"
     inkscape:window-maximized="1"
     inkscape:current-layer="layer1" />
  <defs
     id="defs1">
    <inkscape:perspective
       sodipodi:type="inkscape:persp3d"
       inkscape:vp_x="0 : 148.5 : 1"
       inkscape:vp_y="0 : 1000 : 0"
       inkscape:vp_z="210 : 148.5 : 1"
       inkscape:persp3d-origin="105 : 99 : 1"
       id="perspective1" />
  </defs>
  <g
     inkscape:label="Capa 1"
     inkscape:groupmode="layer"
     id="layer1">
    <g
       sodipodi:type="inkscape:box3d"
       id="g1"
       style="fill:#800000;stroke-width:2.89134"
       inkscape:perspectiveID="#perspective1"
       inkscape:corner0="1.0596113 : 0.20660229 : 0 : 1"
       inkscape:corner7="0.25865136 : 0.11196529 : 0.25 : 1">
      <path
         sodipodi:type="inkscape:box3dside"
         id="path6"
         style="fill:#e9e9ff;fill-rule:evenodd;stroke:none;stroke-linejoin:round"
         inkscape:box3dsidetype="11"
         d="M 68.193295,80.478911 104.39788,44.365749 V 107.09529 L 68.193295,121.4542 Z"
         points="104.39788,44.365749 104.39788,107.09529 68.193295,121.4542 68.193295,80.478911 " />
      <path
         sodipodi:type="inkscape:box3dside"
         id="path1"
         style="fill:#353564;fill-rule:evenodd;stroke:none;stroke-linejoin:round"
         inkscape:box3dsidetype="6"
         d="m 50.980494,72.222366 v 45.948964 l 17.212801,3.28287 V 80.478911 Z"
         points="50.980494,118.17133 68.193295,121.4542 68.193295,80.478911 50.980494,72.222366 " />
      <path
         sodipodi:type="inkscape:box3dside"
         id="path2"
         style="fill:#4d4d9f;fill-rule:evenodd;stroke:none;stroke-linejoin:round"
         inkscape:box3dsidetype="5"
         d="M 50.980494,72.222366 83.422627,23.682051 104.39788,44.365749 68.193295,80.478911 Z"
         points="83.422627,23.682051 104.39788,44.365749 68.193295,80.478911 50.980494,72.222366 " />
      <path
         sodipodi:type="inkscape:box3dside"
         id="path5"
         style="fill:#afafde;fill-rule:evenodd;stroke:none;stroke-linejoin:round"
         inkscape:box3dsidetype="13"
         d="M 50.980494,118.17133 83.422627,98.871261 104.39788,107.09529 68.193295,121.4542 Z"
         points="83.422627,98.871261 104.39788,107.09529 68.193295,121.4542 50.980494,118.17133 " />
      <path
         sodipodi:type="inkscape:box3dside"
         id="path4"
         style="fill:#d7d7ff;fill-rule:evenodd;stroke:none;stroke-linejoin:round"
         inkscape:box3dsidetype="14"
         d="m 83.422627,23.682051 v 75.18921 l 20.975253,8.224029 V 44.365749 Z"
         points="83.422627,98.871261 104.39788,107.09529 104.39788,44.365749 83.422627,23.682051 " />
      <path
         sodipodi:type="inkscape:box3dside"
         id="path3"
         style="fill:#8686bf;fill-rule:evenodd;stroke:none;stroke-linejoin:round"
         inkscape:box3dsidetype="3"
         d="M 50.980494,72.222366 83.422627,23.682051 v 75.18921 L 50.980494,118.17133 Z"
         points="83.422627,23.682051 83.422627,98.871261 50.980494,118.17133 50.980494,72.222366 " />
    </g>
    <g
       sodipodi:type="inkscape:box3d"
       id="g6"
       style="fill:#800000;stroke-width:2.89134"
       inkscape:perspectiveID="#perspective1"
       inkscape:corner0="0.99903453 : 0.059259624 : 0 : 1"
       inkscape:corner7="0.19240655 : -0.015048179 : 0.25 : 1">
      <path
         sodipodi:type="inkscape:box3dside"
         id="path12"
         style="fill:#e9e9ff;fill-rule:evenodd;stroke:none;stroke-linejoin:round"
         inkscape:box3dsidetype="11"
         d="m 70.030051,144.16053 39.162469,-2.42673 v 51.51654 L 70.030051,177.2004 Z"
         points="109.19252,141.7338 109.19252,193.25034 70.030051,177.2004 70.030051,144.16053 " />
      <path
         sodipodi:type="inkscape:box3dside"
         id="path7"
         style="fill:#353564;fill-rule:evenodd;stroke:none;stroke-linejoin:round"
         inkscape:box3dsidetype="6"
         d="m 52.525357,143.61784 v 37.17184 l 17.504694,-3.58928 v -33.03987 z"
         points="52.525357,180.78968 70.030051,177.2004 70.030051,144.16053 52.525357,143.61784 " />
      <path
         sodipodi:type="inkscape:box3dside"
         id="path11"
         style="fill:#afafde;fill-rule:evenodd;stroke:none;stroke-linejoin:round"
         inkscape:box3dsidetype="13"
         d="M 52.525357,180.78968 88.057217,202.6327 109.19252,193.25034 70.030051,177.2004 Z"
         points="88.057217,202.6327 109.19252,193.25034 70.030051,177.2004 52.525357,180.78968 " />
      <path
         sodipodi:type="inkscape:box3dside"
         id="path8"
         style="fill:#4d4d9f;fill-rule:evenodd;stroke:none;stroke-linejoin:round"
         inkscape:box3dsidetype="5"
         d="m 52.525357,143.61784 35.53186,-3.30265 21.135303,1.41861 -39.162469,2.42673 z"
         points="88.057217,140.31519 109.19252,141.7338 70.030051,144.16053 52.525357,143.61784 " />
      <path
         sodipodi:type="inkscape:box3dside"
         id="path10"
         style="fill:#d7d7ff;fill-rule:evenodd;stroke:none;stroke-linejoin:round"
         inkscape:box3dsidetype="14"
         d="m 88.057217,140.31519 v 62.31751 l 21.135303,-9.38236 V 141.7338 Z"
         points="88.057217,202.6327 109.19252,193.25034 109.19252,141.7338 88.057217,140.31519 " />
      <path
         sodipodi:type="inkscape:box3dside"
         id="path9"
         style="fill:#8686bf;fill-rule:evenodd;stroke:none;stroke-linejoin:round"
         inkscape:box3dsidetype="3"
         d="m 52.525357,143.61784 35.53186,-3.30265 v 62.31751 l -35.53186,-21.84302 z"
         points="88.057217,140.31519 88.057217,202.6327 52.525357,180.78968 52.525357,143.61784 " />
    </g>
    <g
       sodipodi:type="inkscape:box3d"
       id="g12"
       style="fill:#800000;stroke-width:2.89134"
       inkscape:perspectiveID="#perspective1"
       inkscape:corner0="1.0753335 : 0.11402291 : 0 : 1"
       inkscape:corner7="-0.16859727 : 0.085623858 : 0.25 : 1">
      <path
         sodipodi:type="inkscape:box3dside"
         id="path18"
         style="fill:#e9e9ff;fill-rule:evenodd;stroke:none;stroke-linejoin:round"
         inkscape:box3dsidetype="11"
         d="M 67.732221,120.7522 145.64417,88.834066 v 26.261314 l -77.911949,17.86971 z"
         points="145.64417,88.834066 145.64417,115.09538 67.732221,132.96509 67.732221,120.7522 " />
      <path
         sodipodi:type="inkscape:box3dside"
         id="path13"
         style="fill:#353564;fill-rule:evenodd;stroke:none;stroke-linejoin:round"
         inkscape:box3dsidetype="6"
         d="m 50.594279,117.40962 v 13.68409 l 17.137942,1.87138 V 120.7522 Z"
         points="50.594279,131.09371 67.732221,132.96509 67.732221,120.7522 50.594279,117.40962 " />
      <path
         sodipodi:type="inkscape:box3dside"
         id="path14"
         style="fill:#4d4d9f;fill-rule:evenodd;stroke:none;stroke-linejoin:round"
         inkscape:box3dsidetype="5"
         d="M 50.594279,117.40962 126.29259,70.89272 145.64417,88.834066 67.732221,120.7522 Z"
         points="126.29259,70.89272 145.64417,88.834066 67.732221,120.7522 50.594279,117.40962 " />
      <path
         sodipodi:type="inkscape:box3dside"
         id="path17"
         style="fill:#afafde;fill-rule:evenodd;stroke:none;stroke-linejoin:round"
         inkscape:box3dsidetype="13"
         d="m 50.594279,131.09371 75.698311,-26.04299 19.35158,10.04466 -77.911949,17.86971 z"
         points="126.29259,105.05072 145.64417,115.09538 67.732221,132.96509 50.594279,131.09371 " />
      <path
         sodipodi:type="inkscape:box3dside"
         id="path16"
         style="fill:#d7d7ff;fill-rule:evenodd;stroke:none;stroke-linejoin:round"
         inkscape:box3dsidetype="14"
         d="m 126.29259,70.89272 v 34.158 l 19.35158,10.04466 V 88.834066 Z"
         points="126.29259,105.05072 145.64417,115.09538 145.64417,88.834066 126.29259,70.89272 " />
      <path
         sodipodi:type="inkscape:box3dside"
         id="path15"
         style="fill:#8686bf;fill-rule:evenodd;stroke:none;stroke-linejoin:round"
         inkscape:box3dsidetype="3"
         d="m 50.594279,117.40962 75.698311,-46.5169 v 34.158 l -75.698311,26.04299 z"
         points="126.29259,70.89272 126.29259,105.05072 50.594279,131.09371 50.594279,117.40962 " />
    </g>
    <ellipse
       style="fill:#ffff00;stroke-width:0.765"
       id="path26"
       cx="154.10011"
       cy="150.81729"
       rx="19.310793"
       ry="13.324447" />
    <rect
       style="fill:#000080;stroke-width:0.765"
       id="rect25"
       width="52.139141"
       height="43.256176"
       x="127.83746"
       y="152.55527" />
    <path
       sodipodi:type="spiral"
       style="fill:none;fill-rule:evenodd;stroke:#000000;stroke-width:0.264583"
       id="path25"
       sodipodi:cx="125.13394"
       sodipodi:cy="148.6931"
       sodipodi:expansion="1"
       sodipodi:revolution="3"
       sodipodi:radius="48.744358"
       sodipodi:argument="-18.424896"
       sodipodi:t0="0"
       d="m 125.13394,148.6931 c 2.22689,1.00694 -0.25866,3.49859 -1.6736,3.70124 -3.83438,0.54915 -6.11274,-3.76807 -5.72887,-7.04844 0.68665,-5.86782 7.06273,-8.93024 12.42327,-7.75651 7.86681,1.72249 11.80811,10.39374 9.78415,17.79811 -2.69762,9.86886 -13.73655,14.71031 -23.17295,11.81178 -11.87474,-3.6475 -17.624825,-17.08471 -13.83942,-28.54778 4.58464,-13.88331 20.43585,-20.54642 33.92262,-15.86705 15.89369,5.51446 23.47244,23.78882 17.89469,39.29745 -6.43973,17.90533 -27.14302,26.40142 -44.67229,19.92233 -19.917866,-7.36196 -29.332468,-30.49809 -21.949961,-50.04713 8.282057,-21.93107 33.853781,-32.265027 55.421961,-23.9776 23.94477,9.20062 35.19871,37.20996 26.00524,60.7968"
       inkscape:label="path25" />
  </g>
</svg>
