<?xml version="1.0" encoding="UTF-8" standalone="no"?>
<!-- Created with Inkscape (http://www.inkscape.org/) -->

<svg
   width="210mm"
   height="297mm"
   viewBox="0 0 210 297"
   version="1.1"
   id="svg1"
   sodipodi:docname="vending_machine.svg"
   inkscape:version="1.3.2 (1:1.3.2+202311252150+091e20ef0f)"
   xmlns:inkscape="http://www.inkscape.org/namespaces/inkscape"
   xmlns:sodipodi="http://sodipodi.sourceforge.net/DTD/sodipodi-0.dtd"
   xmlns="http://www.w3.org/2000/svg"
   xmlns:svg="http://www.w3.org/2000/svg">
  <sodipodi:namedview
     id="namedview1"
     pagecolor="#ffffff"
     bordercolor="#000000"
     borderopacity="0.25"
     inkscape:showpageshadow="2"
     inkscape:pageopacity="0.0"
     inkscape:pagecheckerboard="0"
     inkscape:deskcolor="#d1d1d1"
     inkscape:document-units="mm"
     inkscape:zoom="1.272138"
     inkscape:cx="422.51704"
     inkscape:cy="315.21736"
     inkscape:window-width="1920"
     inkscape:window-height="956"
     inkscape:window-x="0"
     inkscape:window-y="27"
     inkscape:window-maximized="1"
     inkscape:current-layer="layer1" />
  <defs
     id="defs1" />
  <g
     inkscape:label="Layer 1"
     inkscape:groupmode="layer"
     id="layer1">
    <rect
       style="fill:#1a1a1a;stroke:#000000;stroke-width:1.056"
       id="rect3"
       width="58.217823"
       height="61.818089"
       x="90.621338"
       y="60.501556" />
    <rect
       style="fill:#1a1a1a;stroke:#000000;stroke-width:1.056"
       id="rect3-7"
       width="58.217823"
       height="61.818089"
       x="90.330917"
       y="150.11951" />
    <rect
       style="fill:#ffe6d5;stroke:#000000;stroke-width:1.056"
       id="rect4"
       width="39.616062"
       height="43.757294"
       x="93.042183"
       y="63.98016" />
    <path
       style="fill:#000000;stroke:#000000;stroke-width:1.10419"
       d="m 94.490636,97.876317 c 36.273104,-0.07312 36.273104,-0.07312 36.273104,-0.07312 l -0.55829,-0.154691"
       id="path10-2" />
    <path
       style="fill:#000000;stroke:#000000;stroke-width:1.10419"
       d="m 94.19473,87.097948 c 36.27311,-0.07312 36.27311,-0.07312 36.27311,-0.07312 l -0.55829,-0.154691"
       id="path10-5" />
    <rect
       style="fill:#00ffff;stroke:#000000;stroke-width:1.056"
       id="rect5"
       width="12.237724"
       height="4.7012148"
       x="134.59189"
       y="65.104683" />
    <rect
       style="fill:#00ff00;stroke:#000000;stroke-width:1.056"
       id="rect6"
       width="11.251225"
       height="10.859822"
       x="135.57367"
       y="73.839142" />
    <rect
       style="fill:#ff0000;stroke:#000000;stroke-width:1.056"
       id="rect7"
       width="8.7895746"
       height="6.05586"
       x="136.95584"
       y="94.411263" />
    <rect
       style="fill:#f9f9f9;stroke:#000000;stroke-width:1.056"
       id="rect8"
       width="38.808636"
       height="9.4009962"
       x="93.791931"
       y="110.81409"
       ry="0" />
    <path
       style="fill:#000000;stroke:#000000;stroke-width:1.056"
       d="m 90.513576,59.63381 c 16.983574,-6.334258 16.983574,-6.334258 16.983574,-6.334258 l 47.1592,0.19421 -5.9194,6.047494"
       id="path8" />
    <path
       style="fill:#000000;stroke:#000000;stroke-width:1.07827"
       d="m 156.34937,53.417505 c 0.18638,63.877755 0.18638,63.877755 0.18638,63.877755 l -7.57256,5.05489 v 0"
       id="path9" />
    <path
       style="fill:#000000;stroke:#000000;stroke-width:1.10419"
       d="m 94.209853,76.141209 c 36.273107,-0.07312 36.273107,-0.07312 36.273107,-0.07312 l -0.55829,-0.154691"
       id="path10" />
    <ellipse
       style="fill:#ffff00;stroke:none;stroke-width:1.056"
       id="path12"
       cx="140.22585"
       cy="88.682709"
       rx="1.1401438"
       ry="1.4028552" />
    <rect
       style="fill:#ffffff;stroke:none;stroke-width:1.056"
       id="rect13"
       width="49.828503"
       height="51.520638"
       x="94.45636"
       y="155.9855" />
    <rect
       style="fill:#a0892c;stroke:none;stroke-width:1.056"
       id="rect14"
       width="4.0659041"
       height="9.9952784"
       x="142.68001"
       y="176.13261" />
    <ellipse
       style="fill:#000000;stroke:none;stroke-width:1.056"
       id="path14"
       cx="145.03912"
       cy="178.9584"
       rx="1.0043275"
       ry="1.0273232" />
    <ellipse
       style="fill:#000000;stroke:none;stroke-width:1.056"
       id="path14-6"
       cx="144.87395"
       cy="182.91063"
       rx="1.0043275"
       ry="1.0273232" />
    <ellipse
       style="fill:#000000;stroke:none;stroke-width:1.056"
       id="path15"
       cx="97.644646"
       cy="181.9962"
       rx="2.2959712"
       ry="2.5063598" />
    <path
       style="fill:#cccccc;stroke:none;stroke-width:1.056"
       d="m 98.700464,180.81904 c -1.718767,0.85198 -1.718767,0.85198 -1.718767,0.85198 0,0 -1.30048,-0.47194 0,0 1.300477,0.47194 1.300477,0.47194 1.300477,0.47194 l -1.037108,0.93331 0.26635,0.28414 v -0.24355 l -0.007,0.0753"
       id="path16" />
  </g>
</svg>
