<?xml version="1.0" encoding="UTF-8" standalone="no"?>
<!-- Created with Inkscape (http://www.inkscape.org/) -->

<svg
   width="210mm"
   height="297mm"
   viewBox="0 0 210 297"
   version="1.1"
   id="svg5"
   inkscape:version="1.1.2 (0a00cf5339, 2022-02-04)"
   sodipodi:docname="garra_mecanica.svg"
   xmlns:inkscape="http://www.inkscape.org/namespaces/inkscape"
   xmlns:sodipodi="http://sodipodi.sourceforge.net/DTD/sodipodi-0.dtd"
   xmlns="http://www.w3.org/2000/svg"
   xmlns:svg="http://www.w3.org/2000/svg">
  <sodipodi:namedview
     id="namedview7"
     pagecolor="#ffffff"
     bordercolor="#000000"
     borderopacity="0.25"
     inkscape:pageshadow="2"
     inkscape:pageopacity="0.0"
     inkscape:pagecheckerboard="0"
     inkscape:document-units="mm"
     showgrid="false"
     inkscape:zoom="1.3932941"
     inkscape:cx="298.21415"
     inkscape:cy="603.96439"
     inkscape:window-width="1860"
     inkscape:window-height="1016"
     inkscape:window-x="0"
     inkscape:window-y="0"
     inkscape:window-maximized="1"
     inkscape:current-layer="layer1" />
  <defs
     id="defs2" />
  <g
     inkscape:label="Capa 1"
     inkscape:groupmode="layer"
     id="layer1">
    <ellipse
       style="fill:none;fill-opacity:1;stroke:#000000;stroke-width:0.765;stroke-opacity:1"
       id="path31"
       cx="132.85049"
       cy="142.61761"
       rx="12.20612"
       ry="12.165321" />
    <ellipse
       style="fill:none;fill-opacity:1;stroke:#000000;stroke-width:0.765;stroke-opacity:1"
       id="path31-3"
       cx="132.80971"
       cy="74.02153"
       rx="12.20612"
       ry="12.165321" />
    <ellipse
       style="fill:none;fill-opacity:1;stroke:#000000;stroke-width:0.765;stroke-opacity:1;stroke-linejoin:round"
       id="path31-6"
       cx="65.084473"
       cy="142.79861"
       rx="12.20612"
       ry="12.165321" />
    <rect
       style="fill:none;fill-opacity:1;stroke:#000000;stroke-width:0.767;stroke-opacity:1;stroke-miterlimit:4;stroke-dasharray:none;stroke-linejoin:round"
       id="rect998"
       width="68.749374"
       height="24.037369"
       x="64.489311"
       y="130.69537" />
    <rect
       style="fill:none;fill-opacity:1;stroke:#000000;stroke-width:0.765;stroke-opacity:1"
       id="rect1005"
       width="24.412001"
       height="69.946144"
       x="120.67109"
       y="73.178856" />
    <ellipse
       style="fill:none;fill-opacity:1;stroke:#000000;stroke-width:0.765;stroke-opacity:1"
       id="path31-3-7"
       cx="83.893234"
       cy="79.595322"
       rx="12.20612"
       ry="12.165321" />
    <ellipse
       style="fill:none;fill-opacity:1;stroke:#000000;stroke-width:0.680468;stroke-opacity:1"
       id="path31-3-7-5"
       cx="65.947914"
       cy="97.754295"
       rx="10.778162"
       ry="10.900558" />
    <ellipse
       style="fill:none;fill-opacity:1;stroke:#000000;stroke-width:0.523128;stroke-opacity:1"
       id="path31-3-7-5-3"
       cx="59.921627"
       cy="122.42764"
       rx="8.1433716"
       ry="8.5268774" />
    <path
       style="fill:none;fill-opacity:1;stroke:#000000;stroke-width:0.744111;stroke-linejoin:round;stroke-miterlimit:4;stroke-dasharray:none;stroke-opacity:1"
       d="M 85.871084,91.422649 133.60745,85.975963"
       id="path1960" />
    <path
       style="fill:none;fill-opacity:1;stroke:#000000;stroke-width:0.77903;stroke-linejoin:round;stroke-miterlimit:4;stroke-dasharray:none;stroke-opacity:1"
       d="M 81.596258,67.455385 134.01905,62.019201"
       id="path1962" />
    <path
       style="fill:none;fill-opacity:1;stroke:#000000;stroke-width:0.758;stroke-linejoin:round;stroke-miterlimit:4;stroke-dasharray:none;stroke-opacity:1"
       d="M 133.60826,85.978057 V 62.016044"
       id="path1964" />
    <path
       style="fill:none;fill-opacity:1;stroke:#000000;stroke-width:0.758;stroke-linejoin:round;stroke-miterlimit:4;stroke-dasharray:none;stroke-opacity:1"
       d="M 85.871083,91.422647 81.596443,67.455822"
       id="path2542" />
    <path
       style="fill:none;fill-opacity:1;stroke:#000000;stroke-width:0.758;stroke-linejoin:round;stroke-miterlimit:4;stroke-dasharray:none;stroke-opacity:1"
       d="M 75.570381,102.66641 93.481593,86.891547"
       id="path2985" />
    <path
       style="fill:none;fill-opacity:1;stroke:#000000;stroke-width:0.758;stroke-linejoin:round;stroke-miterlimit:4;stroke-dasharray:none;stroke-opacity:1"
       d="M 75.570381,102.66641 56.684462,91.650859"
       id="path2989" />
    <path
       style="fill:none;fill-opacity:1;stroke:#000000;stroke-width:0.758;stroke-linejoin:round;stroke-miterlimit:4;stroke-dasharray:none;stroke-opacity:1"
       d="M 56.684462,91.650859 73.916195,72.073594"
       id="path2991" />
    <path
       style="fill:none;fill-opacity:1;stroke:#000000;stroke-width:0.758;stroke-linejoin:round;stroke-miterlimit:4;stroke-dasharray:none;stroke-opacity:1"
       d="M 75.570381,102.66641 67.71633,122.19917 51.583929,121.94548 56.684462,91.650859"
       id="path3125" />
    <path
       style="fill:none;stroke:#000000;stroke-width:0.758;stroke-linejoin:round"
       d="m 65.132375,285.76284 h 68.749365 c 0,0 11.49004,0.42702 11.84463,-11.60774 0.35459,-12.03476 0,0 0,0 v -69.94614 c 0,0 1.22591,-10.8127 -11.06426,-11.15966 -12.29018,-0.34695 -13.34796,11.15966 -13.34796,11.15966 l -0.4436,57.56422 -55.738175,-0.0477 c 0,0 -12.32337,2.47793 -11.95726,12.26029 0.36612,9.78236 11.95726,11.77708 11.95726,11.77708 z"
       id="path144" />
    <path
       style="fill:none;stroke:#000000;stroke-width:0.758;stroke-linejoin:round"
       d="m 134.60373,217.03714 -47.737168,5.44459 -10.300702,11.24376 -7.854051,19.53276 c 0,0 0.453234,8.558 -7.804348,8.58248 -8.257585,0.0245 -8.328054,-8.83617 -8.328054,-8.83617 l 5.100534,-30.29462 17.231733,-19.57726 7.680248,-4.61777 52.011808,-5.43978 c 0,0 11.3749,1.48915 11.47505,11.16281 0.10015,9.67366 -5.88974,12.89528 -11.47505,12.7992 z"
       id="path419" />
  </g>
</svg>
